<?xml version="1.0" standalone="no"?>
<!DOCTYPE svg PUBLIC "-//W3C//DTD SVG 20010904//EN"
 "http://www.w3.org/TR/2001/REC-SVG-20010904/DTD/svg10.dtd">
<svg version="1.0" xmlns="http://www.w3.org/2000/svg"
 width="512.000000pt" height="512.000000pt" viewBox="0 0 512.000000 512.000000"
 preserveAspectRatio="xMidYMid meet">
<metadata>
Created by potrace 1.11, written by Peter Selinger 2001-2013
</metadata>
<g transform="translate(0.000000,512.000000) scale(0.100000,-0.100000)"
fill="#000000" stroke="none">
<path d="M2486 4166 c-24 -20 -45 -70 -110 -271 -115 -351 -267 -881 -281
-980 -4 -22 -9 -49 -12 -60 -4 -11 -8 -24 -9 -30 -1 -5 -18 -89 -38 -185 -40
-198 -72 -384 -82 -480 -4 -36 -8 -72 -10 -80 -1 -8 -3 -43 -3 -77 l-1 -63
-154 2 c-154 1 -261 14 -304 37 -26 14 -28 10 31 76 39 43 126 164 175 242
143 228 371 778 375 905 3 68 -16 83 -100 82 -70 -1 -93 -15 -93 -57 0 -17
-31 -67 -65 -103 -5 -6 -30 -35 -55 -65 -108 -128 -228 -238 -355 -324 -38
-27 -73 -53 -77 -59 -5 -6 -8 -7 -8 -1 0 6 -5 2 -11 -8 -16 -28 -3 -33 44 -15
89 34 84 33 63 16 -10 -8 -15 -18 -9 -21 18 -11 63 5 108 38 17 12 44 29 60
38 17 9 44 28 60 43 62 55 116 97 119 93 10 -11 -192 -444 -275 -589 -39 -68
-106 -162 -153 -215 -29 -32 -35 -45 -31 -72 6 -48 33 -79 95 -110 53 -27 62
-28 217 -30 89 0 179 3 200 7 21 5 54 12 73 15 19 3 43 8 53 11 9 3 24 -2 33
-10 8 -9 24 -16 34 -16 10 0 22 -5 25 -10 4 -6 12 -7 18 -3 7 4 23 8 36 9 33
2 61 39 61 79 0 20 6 35 15 39 19 7 19 35 0 42 -9 4 -13 14 -10 28 2 11 7 41
10 66 12 108 18 132 26 119 7 -11 9 -10 9 4 0 9 0 18 0 20 -1 4 50 152 59 172
76 167 133 270 204 369 77 107 165 210 208 244 17 13 -11 -73 -79 -238 -37
-92 -86 -268 -109 -393 -24 -138 -22 -334 6 -415 35 -101 76 -152 125 -152 22
0 63 38 81 75 15 34 15 39 1 70 -26 55 -35 126 -31 244 2 61 6 114 8 118 3 5
8 27 11 49 4 22 8 49 10 59 7 35 61 218 171 580 43 141 44 170 8 202 -91 81
-165 62 -298 -78 -101 -107 -219 -268 -274 -376 -12 -24 -23 -43 -25 -43 -6 0
30 158 70 310 20 74 37 142 39 150 2 8 27 92 55 185 29 94 53 175 54 180 1 6
21 69 44 140 130 408 132 423 79 458 -29 19 -95 26 -111 13z"/>
<path d="M3025 3240 c-60 -96 -118 -267 -179 -535 -86 -375 -120 -662 -90
-751 31 -89 115 -125 210 -89 57 21 138 101 188 184 21 33 39 61 41 61 5 0 3
-8 -39 -188 -20 -84 -36 -154 -36 -157 0 -2 -12 -1 -27 1 -46 9 -452 9 -538 0
-44 -4 -102 -10 -130 -11 -27 -2 -61 -7 -75 -10 -14 -4 -37 -8 -52 -11 -15 -2
-58 -13 -95 -25 -152 -48 -213 -99 -243 -198 -39 -131 -2 -242 121 -363 115
-114 272 -177 454 -183 185 -6 331 54 476 195 93 91 155 185 215 327 25 59 49
111 53 114 3 4 51 -1 106 -11 55 -10 119 -20 142 -23 22 -4 52 -8 65 -11 12
-3 39 -8 58 -11 19 -3 46 -7 60 -10 42 -6 264 -45 286 -49 12 -2 37 -7 55 -10
19 -3 108 -19 199 -36 91 -17 176 -33 190 -35 32 -5 190 -37 347 -70 144 -30
174 -31 203 -7 23 19 37 83 26 126 -7 27 -67 55 -166 75 -30 6 -64 13 -75 16
-48 10 -223 44 -255 49 -19 3 -73 12 -120 20 -75 13 -116 20 -195 32 -40 5
-171 24 -210 30 -22 3 -51 7 -65 9 -14 2 -50 6 -80 10 -77 9 -124 14 -167 20
-21 2 -63 7 -93 10 -54 5 -81 8 -205 20 -33 4 -61 8 -63 10 -2 2 1 28 8 58 11
53 12 55 50 60 84 11 144 92 219 298 30 79 57 149 60 154 4 6 14 30 21 55 7
25 18 51 23 57 18 25 -22 26 -52 1 -31 -24 -51 -54 -28 -43 6 4 2 -2 -10 -12
-12 -10 -52 -76 -88 -148 -75 -146 -128 -225 -142 -211 -2 2 3 32 11 67 8 35
17 75 19 89 3 14 12 54 20 90 9 36 36 157 62 270 45 202 83 333 145 500 37
100 33 117 -32 149 -47 22 -107 27 -137 11 -27 -14 -44 -66 -80 -235 -18 -82
-43 -195 -56 -250 -13 -55 -26 -111 -29 -125 -3 -14 -8 -36 -11 -50 -3 -14 -8
-41 -11 -60 -10 -59 -44 -184 -52 -189 -4 -4 -26 -31 -49 -61 -23 -30 -77 -91
-120 -135 -168 -174 -203 -166 -167 40 19 111 41 193 165 630 11 39 45 142 75
231 30 88 54 168 54 178 0 26 -28 63 -65 86 -49 30 -71 26 -100 -20z m-441
-1561 c3 -3 -16 -6 -44 -8 -27 -1 -59 -4 -72 -7 -46 -9 -74 -13 -117 -19 -25
-3 -55 -12 -68 -20 -27 -18 -31 -30 -7 -21 45 17 360 39 519 37 95 -2 255 -7
282 -10 26 -2 -53 -181 -119 -270 -110 -146 -257 -231 -402 -231 -185 0 -403
126 -471 271 -54 116 -17 181 132 228 70 22 102 30 156 38 23 3 60 8 82 12 48
8 121 8 129 0z m40 3 c3 -5 -1 -9 -9 -9 -8 0 -12 4 -9 9 3 4 7 8 9 8 2 0 6 -4
9 -8z m-409 -600 c-3 -3 -11 0 -18 7 -9 10 -8 11 6 5 10 -3 15 -9 12 -12z"/>
</g>
</svg>
